# xmcd
#
# Track frame offsets:
#	150
#	10413
#	19897
#	26782
#	40357
#	58068
#	67642
#	80907
#	83811
#	98362
#	108452
#	125484
#	139086
#	149046
#	162222
#	175149
#	186777
#	201223
#	209284
#	218147
#	225716
#	235225
#	249882
#
# Disc length: 3544 seconds
# Revision: 0
# Processed by: cddbd v1.5.2PL0 Copyright (c) Steve Scherf et al.
# Submitted via: dBpowerAMP V12.0
#
DISCID=430dd617
DTITLE=Søren Sebber Larsen - The Doc Tele Caster
DYEAR=2004
DGENRE=Country
TTITLE0=Rhumbase
TTITLE1=My Baby Left Me
TTITLE2=Pick A Blues
TTITLE3=Fun Key
TTITLE4=You Put A Spell On Me
TTITLE5=Don't Be Cruel
TTITLE6=Skating
TTITLE7=Intermezzo
TTITLE8=Bouncy Blues
TTITLE9=Octavpus
TTITLE10=Adrenalin Flowing
TTITLE11=Jerry Lee's Rock'n'Roll Revival Show
TTITLE12=Cruise Control
TTITLE13=Hi-ho Silver
TTITLE14=Maverick
TTITLE15=Walk Right In
TTITLE16=Lonesome Me
TTITLE17=Mr Tanmex
TTITLE18=Up In Smoke
TTITLE19=Reedsome
TTITLE20=My Bay Left Me, alt. solo
TTITLE21=Chantilly Lace
TTITLE22=I'm Walking
EXTD=
EXTT0=
EXTT1=
EXTT2=
EXTT3=
EXTT4=
EXTT5=
EXTT6=
EXTT7=
EXTT8=
EXTT9=
EXTT10=
EXTT11=
EXTT12=
EXTT13=
EXTT14=
EXTT15=
EXTT16=
EXTT17=
EXTT18=
EXTT19=
EXTT20=
EXTT21=
EXTT22=
PLAYORDER=
